<?xml version="1.0" standalone="no"?><!DOCTYPE svg PUBLIC "-//W3C//DTD SVG 1.1//EN" "http://www.w3.org/Graphics/SVG/1.1/DTD/svg11.dtd"><svg t="1763744090558" class="icon" viewBox="0 0 1024 1024" version="1.1" xmlns="http://www.w3.org/2000/svg" p-id="43244" xmlns:xlink="http://www.w3.org/1999/xlink" width="64" height="64"><path d="M0 512c0 283.428571 228.571429 512 512 512s512-228.571429 512-512S795.428571 0 512 0 0 228.571429 0 512z" fill="#C7F0C8" p-id="43245"></path><path d="M347.428571 533.942857c87.771429 0 160.914286 71.314286 160.914286 160.914286 0 87.771429-71.314286 160.914286-160.914286 160.914286s-160.914286-71.314286-160.914285-160.914286c0-87.771429 73.142857-160.914286 160.914285-160.914286z m62.171429 104.228572l-84.114286 84.114285-38.4-38.4-18.285714 18.285715 56.685714 56.685714 102.4-102.4-18.285714-18.285714zM310.857143 128c332.8 0 603.428571 272.457143 603.428571 603.428571h-54.857143c0-301.714286-246.857143-548.571429-548.571428-548.571428V128z m0 219.428571c210.285714 0 384 173.714286 384 384h-54.857143c0-181.028571-148.114286-329.142857-329.142857-329.142857v-54.857143z" fill="#718EB4" p-id="43246"></path></svg>